<svg xmlns="http://www.w3.org/2000/svg" xml:space="preserve" width="121.671" height="129.821" style="shape-rendering:geometricPrecision;text-rendering:geometricPrecision;image-rendering:optimizeQuality;fill-rule:evenodd;clip-rule:evenodd" viewBox="0 0 5789.78 6177.63"><defs><style>.fil0{fill:#010101}.fil4{fill:#f07182}.fil3{fill:#fee659}</style></defs><g id="Layer_x0020_1"><g id="_2270567926640"><path class="fil0" d="M3008.92 3913.45c31.17-63.45 44.44-22.21 220.91-115.36 143.23 122.98 1046.92 1037.89 1070.6 1080.35-80.9 43.52-161.17 128.13-263.93 191.88-315.26 195.59-633.11 307.74-1027.62 330.8l.04-1487.68zm-449.11-115 198.39 86.67 22.64 1515.61c-275.78-14.23-521.98-82.84-739.5-177.69-105.79-46.13-200.89-100.59-294.85-161.47-83.9-54.37-184.53-146.74-255.77-184.44l1069.07-1078.68zm-1355.72-391.77 1101.21 1.37c20.05 108.67 61.17 151.31 84.17 231.33l-864.76 854.71-198.3 200.01c-38.7-22.01-84.89-86.13-110.68-121.8-33.87-46.82-61.96-83.25-94.46-133.92-54.5-84.94-113.85-192.01-159.74-297.49-95.54-219.62-161.33-464.48-174.29-733.72l416.86-.49zm2194.1 234.53c28.11-84.93 67.3-124.82 86.53-234.22l1517.66-.23c-21.28 386.64-139.15 724.93-333.75 1031.92l-185.25 257.44c-82.73-25.75-482.99-456.95-551.28-525.62l-533.91-529.29zm-596.87-708.6c230.03-60.16 411.07 91.67 456.63 268.45 125.93 488.53-607.41 650.33-724.39 190.25-59.62-234.49 91.6-412.63 267.76-458.69zm1661.92-1042.04c3.02 1.76 6.85 4.87 8.47 6.17 1.6 1.28 6.38 4.71 8.35 6.33 1.96 1.64 5.99 4.8 8.13 6.69l83.94 98.2c39.15 53.04 58.7 80.92 93.81 134.73 166.87 255.78 359.25 733.47 331.16 1035.71l-1506.69.29c-26.02-78.6-71.67-167.35-89.67-224.29l1062.51-1063.82zM2303.08 3179.84l-1510.21-2.03c-20.68-207.01 95.05-575.65 170.03-739.35 80.12-174.92 250.59-467.27 363.52-547.34l207.67 211.87 854.6 851.15c-27.05 80.16-59.8 114.82-85.61 225.71zm711.31-1794.15c110.68-70.56 120.75-71.06 180.77-181.16 411.73 48.9 905.75 298.25 1101.39 516.17-30.43 54.6-1013.12 1037.11-1066.72 1066.57-44.35-19.35-190.27-68.94-220.86-107.25l5.41-1294.34zM1493.28 1720.7c171.54-218.79 759.19-483.6 1100.75-516.57 78.16 141.58 74.44 96.56 186.27 187.06 2.45 173.13 24.77 1229.43-9.35 1299.36-38.27 32.03-163.86 77.97-211.13 97.91-56.29-34.57-1027.01-1006.18-1066.54-1067.76zm25.63 3471.89c76.72 34.32 217.6 148.54 422.49 237.89 2063.37 899.78 4110.54-1302.99 2965.02-3331-152.75-270.42-405.67-541.75-635.56-704.19-504.07-356.2-773.02-331.12-932.53-405.51 26.06-90.36 125.7-194.74 161.22-292.38 367.49 54.98 886.83 347.9 1154.81 588.67 629.03 565.17 1033.34 1447.12 876.38 2415.62-90.91 561.1-361.47 1094.36-745.43 1477.88-58.92 58.85-110.02 93.67-171.43 148.58-409.76 366.32-1162.74 710-1922.38 623.13-517.52-24.78-1156.46-287.91-1524.24-629.62-55.52-51.58-105.79-86.26-162.23-142.66-188.7-188.56-387.38-472.61-505.53-713.04-437.36-889.91-334.27-2060.69 297.13-2818.35 373.28-447.94 903.34-853.77 1493.54-949.44 34.89 93.99 135.37 196.76 162.44 291.61-179.92 88.54-638.02 99.6-1174.52 606.84-699.46 661.33-909.74 1717.42-537.43 2613.28 264.47 636.37 739.24 929.65 778.25 982.69zm3274.34 284.45c135.09-109.31 338.95-335.76 438.89-474.81 993.77-1382.84 610.83-3255.17-763.67-4139.68-448.33-288.5-739.84-323.97-826.18-375.28 58.34-178.11 62.71-287.67-86.6-417.33-62.3-54.08-76.06-36.91-137.82-69.94h-294.94c-96.42 86.15-97.59 170.45-14.91 212.49 50.61 25.74 235.41 12.97 311.45 27.77 68.81 108.22-26.02 207.08-86.22 304.61-399.79 647.84-388.34 793.25-604.23 443.44-443.73-718.97-537.65-747.93-137.68-758.52 147.51-3.9 215.62-103.99 75.18-229.8h-294.74c-47.84 25.32-156.99 43.27-223.57 167.01-64.8 120.45-40.47 201.81-.76 320.26-63.58 38.76-337.89 118.61-433.12 159.91-446.43 193.59-882.19 554.88-1153.44 932.33-752.37 1047.04-739.98 2380.28-9.87 3414.03 227.13 321.59 604.82 654.52 957.1 839.98 69.84 36.76 126.8 67.61 201.36 102.53 1006.77 471.71 2237.46 217.58 3083.77-459.02z"/><path d="m1518.9 5192.59 32.89 62.44c293.23 285.01 651.82 524.56 1047.62 659.89l92.07 36.35c759.64 86.87 1512.62-256.81 1922.38-623.13 61.42-54.91 112.52-89.73 171.43-148.58 383.97-383.52 654.52-916.78 745.43-1477.88 156.96-968.5-247.35-1850.46-876.38-2415.62-267.98-240.77-787.32-533.69-1154.81-588.67-35.52 97.64-135.16 202.03-161.22 292.38 159.51 74.39 428.46 49.32 932.53 405.51 229.89 162.44 482.81 433.77 635.56 704.19 1145.53 2028.01-901.65 4230.78-2965.02 3331-204.89-89.35-345.76-203.57-422.49-237.89z" style="fill:#5290d9"/><path d="m2691.48 5951.27-92.07-36.35c-395.8-135.34-754.39-374.88-1047.62-659.89l-32.89-62.44c-39.01-53.04-513.78-346.32-778.25-982.69-372.31-895.86-162.03-1951.95 537.43-2613.28 536.5-507.24 994.6-518.3 1174.52-606.84-27.07-94.85-127.55-197.62-162.44-291.61-590.2 95.66-1120.26 501.5-1493.54 949.44-631.41 757.66-734.5 1928.44-297.13 2818.35 118.14 240.43 316.83 524.48 505.53 713.04 56.44 56.4 106.71 91.08 162.23 142.66 367.78 341.72 1006.72 604.84 1524.24 629.62z" style="fill:#0a72d2"/><path class="fil3" d="M4011.3 3667.73c51.87-23.7 177.41 27.98 213.12 58.31 66.01 56.02 47 163.77-31.06 192.28-141.71 51.76-388.93-156.04-182.06-250.59zm-613.11-26.53 533.91 529.29c68.29 68.67 468.55 499.86 551.28 525.62l185.25-257.44c194.6-306.99 312.47-645.27 333.75-1031.92l-1517.66.23c-19.23 109.4-58.42 149.29-86.53 234.22z"/><path class="fil4" d="M3314.65 4339.62c134.69-16.53 148.04 18.4 188.75 123.09 78.4 201.52-123.4 298.5-215.79 78.11-52.07-124.21-33.42-115.75 27.03-201.2zm-305.73-426.18-.04 1487.68c394.5-23.06 712.36-135.21 1027.62-330.8 102.77-63.76 183.03-148.36 263.93-191.88-23.69-42.46-927.37-957.37-1070.6-1080.35-176.47 93.15-189.74 51.91-220.91 115.36zM4095.26 2673.94c156.35-60.02 290.12 154.83 8.47 241.85-99.89 30.86-177.89-13.33-169.02-111.47 7.7-84.93 89.08-102.95 160.55-130.37zm-694.53 280.44c18 56.94 63.65 145.7 89.67 224.29l1506.69-.29c28.09-302.24-164.29-779.93-331.16-1035.71-35.11-53.81-54.66-81.69-93.81-134.73l-83.94-98.2c-2.14-1.89-6.17-5.05-8.13-6.69-1.96-1.62-6.74-5.05-8.35-6.33-1.62-1.29-5.45-4.41-8.47-6.17L3400.72 2954.37z"/><path d="M2262.95 2055.7c-22.64-171.74 233.21-197.44 264.31 64.17 21.76 183.11-230.3 193.81-264.31-64.17zm-769.67-335.01c39.53 61.58 1010.24 1033.19 1066.54 1067.76 47.27-19.95 172.86-65.88 211.13-97.91 34.12-69.93 11.8-1126.23 9.35-1299.36-111.83-90.5-108.11-45.48-186.27-187.06-341.56 32.97-929.2 297.78-1100.75 516.57z" style="fill:#f36c7e"/><path class="fil3" d="M3505.81 2116.6c-29.86 72.88-52.39 147.6-151.74 135.63-169.71-20.45-73.94-339.87 71.19-327.56 103.99 8.83 116.27 104.76 80.56 191.94zm-491.43-730.92-5.41 1294.34c30.59 38.31 176.51 87.89 220.86 107.25 53.6-29.46 1036.29-1011.97 1066.72-1066.57-195.64-217.93-689.66-467.27-1101.39-516.17-60.02 110.11-70.09 110.61-180.77 181.16z"/><path d="M2360.52 4351.42c210.08-108.79 190.35 218.21 75.59 291.7-195.84 125.41-211.88-221.11-75.59-291.7zm-869.78 525.71c71.24 37.7 171.87 130.07 255.77 184.44 93.95 60.88 189.06 115.34 294.85 161.47 217.51 94.85 463.71 163.47 739.5 177.69l-22.64-1515.61-198.39-86.67-1069.07 1078.68z" style="fill:#fde454"/><path d="M1843.44 3822.08c-68.25 133.9-403.96 141.31-305.87-61.96 20.29-42.05 136.69-100.21 201.38-102.01 80.48-2.23 144.92 84.66 104.49 163.97zm-318.73 672 864.76-854.71c-23-80.02-64.12-122.66-84.17-231.33l-1101.21-1.37c7.45 209.04 48.49 412.72 106.09 599.37 27.45 88.92 58.7 165.46 98.29 252.42 40.9 89.84 88.36 160.48 116.24 235.61z" style="fill:#f17183"/><path d="M3122.93 0h-456.41c140.45 125.81 72.34 225.89-75.18 229.8-399.97 10.59-306.05 39.55 137.68 758.52 215.89 349.81 204.44 204.4 604.23-443.44 60.2-97.53 155.03-196.4 86.22-304.61-76.04-14.8-260.84-2.03-311.45-27.77-82.68-42.05-81.51-126.35 14.91-212.49z" style="fill:#d2e9fe"/><path d="M1585.01 2675.9c60.3-34.19 187.5 17.18 229.38 49.5 61.53 47.44 51.58 154.91-11.92 187.98-130.55 68-406.14-130.48-217.46-237.48zm718.06 503.93c25.81-110.9 58.56-145.55 85.61-225.71l-854.6-851.15c-71.29 51.98-184.67 354.2-221.72 471.86-59.05 187.46-100.03 386.75-108.4 599.05l1099.11 5.95z" style="fill:#ffe55a"/><path d="m2303.07 3179.83-1099.11-5.95c8.36-212.3 49.35-411.59 108.4-599.05 37.05-117.66 150.43-419.88 221.72-471.86l-207.67-211.87c-112.93 80.07-283.39 372.42-363.52 547.34-74.98 163.7-190.71 532.34-170.03 739.35l1510.21 2.03z" style="fill:#fed500"/><path d="M1524.71 4494.08c-27.88-75.12-75.34-145.77-116.24-235.61-39.59-86.96-70.84-163.5-98.29-252.42-57.61-186.65-98.65-390.33-106.09-599.37l-416.86.49c12.97 269.24 78.76 514.11 174.29 733.72 45.9 105.48 105.25 212.55 159.74 297.49 32.5 50.66 60.59 87.1 94.46 133.92 25.79 35.66 71.98 99.78 110.68 121.8l198.3-200.01z" style="fill:#ed5469"/><path d="M2801.31 2932.61c-176.16 46.06-327.38 224.2-267.76 458.69 116.98 460.08 850.32 298.28 724.39-190.25-45.56-176.78-226.6-328.61-456.63-268.45z" style="fill:#fba30a"/><path class="fil0" d="M2262.95 2055.7c34.01 257.98 286.07 247.28 264.31 64.17-31.1-261.61-286.95-235.91-264.31-64.17zM1843.44 3822.08c40.43-79.31-24.01-166.2-104.49-163.97-64.69 1.8-181.09 59.96-201.38 102.01-98.09 203.27 237.62 195.86 305.87 61.96zM1585.01 2675.9c-188.68 106.99 86.9 305.48 217.46 237.48 63.51-33.07 73.45-140.54 11.92-187.98-41.89-32.32-169.08-83.68-229.38-49.5zM4011.3 3667.73c-206.87 94.55 40.36 302.35 182.06 250.59 78.06-28.51 97.07-136.26 31.06-192.28-35.72-30.32-161.25-82.01-213.12-58.31zM2360.52 4351.42c-136.29 70.59-120.25 417.11 75.59 291.7 114.76-73.49 134.49-400.49-75.59-291.7zM4095.26 2673.94c-71.47 27.43-152.86 45.45-160.55 130.37-8.87 98.15 69.13 142.33 169.02 111.47 281.65-87.01 147.87-301.86-8.47-241.85zM3505.81 2116.6c35.72-87.17 23.43-183.11-80.56-191.94-145.12-12.3-240.89 307.11-71.19 327.56 99.35 11.98 121.89-62.75 151.74-135.63zM3314.65 4339.62c-60.45 85.45-79.1 76.99-27.03 201.2 92.39 220.39 294.18 123.41 215.79-78.11-40.72-104.69-54.06-139.62-188.75-123.09z"/></g></g></svg>
